<?xml version="1.0" standalone="no"?>
<!DOCTYPE svg PUBLIC "-//W3C//DTD SVG 20010904//EN"
 "http://www.w3.org/TR/2001/REC-SVG-20010904/DTD/svg10.dtd">
<svg version="1.0" xmlns="http://www.w3.org/2000/svg"
 width="700.000000pt" height="700.000000pt" viewBox="0 0 700.000000 700.000000"
 preserveAspectRatio="xMidYMid meet">
<metadata>
Created by potrace 1.14, written by Peter Selinger 2001-2017
</metadata>
<g transform="translate(0.000000,700.000000) scale(0.100000,-0.100000)"
fill="#000000" stroke="none">
<path d="M3285 6994 c-22 -2 -89 -9 -150 -14 -583 -57 -1180 -283 -1668 -632
-300 -215 -602 -517 -815 -814 -349 -490 -560 -1046 -634 -1669 -7 -62 -13
-220 -13 -365 0 -334 25 -545 100 -847 234 -940 850 -1741 1705 -2216 391
-217 812 -353 1285 -413 194 -25 614 -25 810 0 611 77 1142 283 1630 629 286
203 596 512 801 797 349 484 562 1030 640 1645 25 195 25 615 0 810 -90 706
-358 1325 -801 1850 -119 141 -349 366 -490 478 -515 412 -1132 667 -1810 747
-92 11 -518 21 -590 14z m623 -158 c486 -64 922 -214 1325 -458 1355 -819
1955 -2458 1449 -3958 -361 -1070 -1260 -1900 -2357 -2179 -267 -68 -510 -96
-825 -96 -268 0 -379 9 -610 51 -1025 186 -1923 859 -2390 1793 -184 366 -290
724 -341 1146 -18 145 -18 585 0 730 88 729 372 1359 854 1894 542 601 1328
1001 2122 1080 61 6 126 13 145 15 81 9 513 -3 628 -18z"/>
<path d="M3220 6009 c-562 -68 -1065 -305 -1462 -688 -215 -207 -375 -421
-502 -669 -132 -260 -203 -478 -253 -777 -26 -158 -26 -592 0 -750 74 -441
227 -802 488 -1152 94 -125 356 -387 480 -480 384 -287 809 -455 1277 -504
163 -17 503 -7 658 20 414 70 782 229 1121 482 126 94 388 356 482 482 261
350 414 712 488 1152 28 169 26 603 -4 775 -92 525 -316 973 -672 1342 -219
228 -433 385 -706 518 -186 91 -309 138 -472 181 -222 57 -335 71 -603 74
-135 2 -279 -1 -320 -6z m462 -2219 c238 -138 432 -253 431 -256 -2 -6 -861
-504 -869 -504 -2 0 -4 227 -4 505 0 278 2 505 4 505 2 0 199 -113 438 -250z"/>
</g>
</svg>
